<svg width="169" height="61" viewBox="0 0 169 61" fill="none" xmlns="http://www.w3.org/2000/svg">
<path d="M55.9147 47.1085C55.8955 45.355 55.5154 43.5645 54.8251 41.777C54.4836 40.8894 54.1819 40.1908 53.4986 38.6664C53.4786 38.6219 53.4786 38.6218 53.4587 38.5773C53.3637 38.3653 53.3637 38.3654 53.2692 38.1541C49.0767 28.8472 44.667 19.6205 40.0416 10.474C39.9246 10.2442 39.8314 10.0602 39.6253 9.65295C39.621 9.64461 39.621 9.64461 39.6168 9.63627C38.8601 8.14127 38.5114 7.46566 38.0577 6.63476C37.2265 5.12418 36.3796 3.94366 35.3564 2.97782C33.5562 1.22983 31.1196 0.162952 28.5882 0.00244331L27.4866 0C24.8276 0.132167 22.3101 1.24166 20.4585 3.07974C19.4888 4.01511 18.6755 5.16097 17.8639 6.63418C17.4084 7.46552 17.0337 8.19049 16.3193 9.60361C16.2771 9.68708 16.2771 9.68707 16.235 9.77046C16.0718 10.0933 16.0008 10.2336 15.9088 10.4148C12.8309 16.4975 9.82686 22.6645 6.8948 28.9168C4.75044 33.5089 3.23562 36.8159 1.77862 40.1195C0.879169 42.1682 0.369858 43.7005 0.147065 45.3277C-0.324611 48.4669 0.349142 51.7785 2.01228 54.5011C3.44447 56.8638 5.59259 58.7598 8.09272 59.857C10.0407 60.7147 12.1879 61.1024 14.3019 60.9753C16.9731 60.831 19.6555 59.893 22.141 58.3244C24.4153 56.9029 26.46 55.0617 28.8585 52.4407L27.0662 52.4388C29.2638 54.8508 31.1711 56.6001 33.2642 57.991C35.7221 59.6378 38.3582 60.671 41.0175 60.9268C44.1092 61.2558 47.3016 60.4678 49.885 58.7228C52.1593 57.1973 53.9554 54.9487 54.9648 52.3664C55.6201 50.6956 55.9456 48.8943 55.9146 47.1008L55.9147 47.1085ZM49.6215 49.6404C49.0875 51.5172 47.799 53.1622 46.1262 54.1046C44.6521 54.9442 42.8717 55.2472 41.1721 54.958C39.1479 54.6371 37.1575 53.5911 35.0865 51.8919C33.8697 50.8961 32.7035 49.7333 31.2952 48.1596L31.3496 49.7246C33.669 46.737 35.3412 44.2053 36.6334 41.5599C38.081 38.5862 38.8975 35.8094 38.9836 33.052C39.0412 30.981 38.6345 28.9856 37.7518 27.2723C36.5601 24.9117 34.4189 23.0535 31.8976 22.1498C29.6152 21.3195 27.0707 21.2399 24.7237 21.9213C22.4669 22.5716 20.4497 23.951 19.071 25.82C17.8704 27.4322 17.1498 29.436 16.9847 31.527C16.7645 34.1389 17.3061 36.8566 18.4711 39.7335C19.8498 43.0798 21.8556 46.2776 24.5825 49.7057L24.6061 48.1546C23.6099 49.3315 22.5009 50.4512 21.2895 51.5103C19.2247 53.2898 17.2671 54.4204 15.2553 54.8636C13.4863 55.2679 11.6232 55.0524 10.0735 54.254C8.22695 53.3168 6.80352 51.5443 6.26935 49.5178C5.86755 48.053 5.93565 46.4294 6.44274 44.9068C6.74108 44.0157 7.04196 43.2972 7.75065 41.7164C7.78042 41.65 7.78041 41.65 7.81022 41.5835C7.93957 41.2949 8.02312 41.1076 8.10877 40.9137C12.2126 31.8007 16.5577 22.7058 21.136 13.6383C21.2332 13.4462 21.3109 13.2924 21.4856 12.9461C21.4945 12.9287 21.4944 12.9287 21.5032 12.9112C22.321 11.2904 22.7007 10.5526 23.1842 9.66497C23.8327 8.49029 24.4039 7.727 25.0927 7.19389C25.9185 6.53612 26.9547 6.18363 27.9758 6.20722C29.0679 6.19483 30.1355 6.59104 30.9614 7.29775C31.6986 7.92124 32.2626 8.7436 33.0164 10.1765C34.1 12.2494 35.0431 14.1199 36.7706 17.595C36.9249 17.9054 36.9249 17.9054 37.0792 18.2159C37.0962 18.2501 37.0963 18.2501 37.1133 18.2844C40.9845 26.0902 44.6845 33.9267 48.2104 41.7927C48.2583 41.9026 48.2955 41.9874 48.3854 42.1914C48.4185 42.2664 48.4185 42.2663 48.4514 42.3411C49.1142 43.8436 49.386 44.5261 49.6215 45.3722C50.0091 46.778 50.012 48.278 49.6222 49.638L49.6215 49.6404ZM28.9071 45.2287C28.3984 44.6188 27.987 44.0509 27.192 42.8939C27.1398 42.8178 27.1398 42.8179 27.0873 42.7415C27.0568 42.697 27.0568 42.697 27.0261 42.6525C25.9376 41.0264 25.0551 39.4684 24.3649 37.9116C23.7078 36.4107 23.2944 35.0552 23.1294 33.7439C22.989 32.5296 23.0666 31.4848 23.3978 30.6125C23.7118 29.7462 24.3087 28.9981 25.0689 28.5048C26.9698 27.2555 29.681 27.4162 31.3542 28.8883C32.1538 29.5821 32.679 30.6462 32.8115 31.8086C32.9784 33.2948 32.7 34.9151 32.0306 36.7359C31.0024 39.4846 29.4065 42.1224 27.0092 45.2712L27.9751 46.0118L28.9071 45.2287Z" fill="#FF7977"/>
<path d="M77.008 41.48C78.928 41.48 80.976 40.712 82 39.016L82.128 41H86.128V30.76C86.128 26.344 83.024 23.624 78.8 23.624C75.696 23.624 72.336 25.288 71.6 28.52L75.6 29.32C76.08 27.976 77.36 27.304 78.736 27.304C80.688 27.304 81.776 28.648 81.776 30.536V31.528C80.464 31.048 79.344 30.792 77.936 30.792C74.576 30.792 70.992 32.424 70.992 36.2C70.992 39.56 73.936 41.48 77.008 41.48ZM75.408 35.976C75.408 34.28 77.296 33.8 78.672 33.8C79.216 33.8 79.728 33.864 80.272 33.96C80.816 34.088 81.296 34.248 81.776 34.44V34.6C81.776 36.68 80.048 38.024 78.096 38.024C76.848 38.024 75.408 37.416 75.408 35.976ZM89.6983 41H94.1783V24.104H89.6983V41ZM91.9383 22.088C93.4103 22.088 94.4983 20.968 94.4983 19.528C94.4983 18.024 93.4103 16.968 91.9383 16.968C90.4663 16.968 89.3783 18.088 89.3783 19.528C89.3783 20.968 90.5303 22.088 91.9383 22.088ZM97.7608 24.104V41H102.241V32.712C102.241 30.184 103.361 28.36 106.081 28.36C106.593 28.36 107.073 28.36 107.553 28.584L108.033 24.168C107.809 24.072 107.521 24.008 107.233 23.944C106.945 23.912 106.625 23.88 106.337 23.88C104.353 23.88 102.881 24.872 102.049 26.664L101.889 24.104H97.7608ZM110.48 17.128V41H114.608L114.736 38.792C115.92 40.584 117.84 41.48 119.952 41.48C124.912 41.48 127.984 37.032 127.984 32.456C127.984 27.88 125.008 23.624 120.208 23.624C118.095 23.624 116.24 24.552 114.96 26.248V17.128H110.48ZM119.152 27.656C121.872 27.656 123.408 30.056 123.408 32.552C123.408 35.08 121.808 37.448 119.152 37.448C116.464 37.448 114.896 35.016 114.896 32.552C114.896 30.024 116.496 27.656 119.152 27.656ZM130.917 24.104V41H135.397V31.304C135.397 29.224 136.773 27.656 138.853 27.656C141.061 27.656 141.861 29.48 141.861 31.432V41H146.341V30.856C146.341 26.92 144.325 23.624 140.165 23.624C138.117 23.624 136.229 24.488 135.173 26.28L135.045 24.104H130.917ZM149.917 17.128V41H154.045L154.173 38.792C155.357 40.584 157.277 41.48 159.389 41.48C164.349 41.48 167.421 37.032 167.421 32.456C167.421 27.88 164.445 23.624 159.645 23.624C157.533 23.624 155.677 24.552 154.397 26.248V17.128H149.917ZM158.589 27.656C161.309 27.656 162.845 30.056 162.845 32.552C162.845 35.08 161.245 37.448 158.589 37.448C155.901 37.448 154.333 35.016 154.333 32.552C154.333 30.024 155.933 27.656 158.589 27.656Z" fill="#FF7977"/>
</svg>
