<svg width="36" height="36" viewBox="0 0 36 36" fill="none" xmlns="http://www.w3.org/2000/svg">
<path d="M27.375 30.75V14.25C27.375 13.4212 28.0462 12.75 28.875 12.75H31.875C32.7038 12.75 33.375 13.4212 33.375 14.25V30.75H27.375Z" fill="#FF7977"/>
<path d="M19.125 30.75V19.5C19.125 18.6712 19.7962 18 20.625 18H23.625C24.4538 18 25.125 18.6712 25.125 19.5V30.75H19.125Z" fill="#FF7977"/>
<path d="M10.875 30.75V17.25C10.875 16.4212 11.5462 15.75 12.375 15.75H15.375C16.2038 15.75 16.875 16.4212 16.875 17.25V30.75H10.875Z" fill="#FF7977"/>
<path d="M2.625 30.75V21.75C2.625 20.9212 3.29625 20.25 4.125 20.25H7.125C7.95375 20.25 8.625 20.9212 8.625 21.75V30.75H2.625Z" fill="#FF7977"/>
<path d="M33.75 31.5H2.25C1.836 31.5 1.5 31.1647 1.5 30.75C1.5 30.3353 1.836 30 2.25 30H33.75C34.164 30 34.5 30.3353 34.5 30.75C34.5 31.1647 34.164 31.5 33.75 31.5Z" fill="url(#paint0_linear_2_66)"/>
<path d="M33.897 4.5L30.2197 3.765C29.8132 3.6825 29.418 3.94725 29.337 4.353C29.256 4.7595 29.5193 5.154 29.925 5.23575L31.8638 5.6235L21.6735 12.642L13.8098 9.0675C13.5848 8.9655 13.3253 8.9805 13.1138 9.10725L1.86375 15.8573C1.50825 16.0703 1.3935 16.5308 1.6065 16.8863C1.7475 17.1203 1.99575 17.25 2.25 17.25C2.38125 17.25 2.51475 17.2155 2.6355 17.1428L13.548 10.5953L21.4395 14.1825C21.6788 14.2913 21.9578 14.2673 22.1753 14.118L32.6512 6.90301L32.2785 8.766C32.1975 9.1725 32.4607 9.567 32.8665 9.64875C32.916 9.6585 32.9655 9.66375 33.0143 9.66375C33.3645 9.66375 33.678 9.41701 33.7485 9.06075L34.4835 5.3835C34.5645 4.977 34.3013 4.5825 33.8955 4.50075L33.897 4.5Z" fill="url(#paint1_linear_2_66)"/>
<defs>
<linearGradient id="paint0_linear_2_66" x1="1.58025" y1="30.75" x2="41.4765" y2="30.75" gradientUnits="userSpaceOnUse">
<stop stop-color="#3E4154"/>
<stop offset="1" stop-color="#1B2129"/>
</linearGradient>
<linearGradient id="paint1_linear_2_66" x1="8.36049e-07" y1="10.5" x2="41.4765" y2="10.5" gradientUnits="userSpaceOnUse">
<stop stop-color="#3E4154"/>
<stop offset="1" stop-color="#1B2129"/>
</linearGradient>
</defs>
</svg>
