<svg width="25" height="21" viewBox="0 0 25 21" fill="none" xmlns="http://www.w3.org/2000/svg">
<g clip-path="url(#clip0_2_103)">
<path d="M11.858 0.23L0 10.603C0 10.603 2.845 10.603 3.431 10.603C3.431 11.338 3.431 20.279 3.431 20.279H11.139C11.139 20.279 11.139 15.438 11.139 14.75C11.625 14.75 12.617 14.75 13.103 14.75C13.103 15.438 13.103 20.279 13.103 20.279H20.813C20.813 20.279 20.813 11.339 20.813 10.603C21.398 10.603 24.241 10.603 24.241 10.603C24.241 10.603 19.686 6.625 19.43 6.401C19.43 6.059 19.43 0.131 19.43 0.131H15.866C15.866 0.131 15.866 2.263 15.866 3.272C14.93 2.454 12.122 0 12.122 0L11.858 0.23ZM18.629 0.931C18.629 1.629 18.629 6.764 18.629 6.764C18.629 6.764 21.065 8.89 22.108 9.803C21.304 9.803 20.012 9.803 20.012 9.803C20.012 9.803 20.012 18.743 20.012 19.478C19.346 19.478 14.569 19.478 13.903 19.478C13.903 18.79 13.903 13.949 13.903 13.949H10.339C10.339 13.949 10.339 18.79 10.339 19.478C9.672 19.478 4.897 19.478 4.231 19.478C4.231 18.744 4.231 9.803 4.231 9.803C4.231 9.803 2.936 9.803 2.13 9.803C3.473 8.628 11.657 1.469 12.122 1.062C12.584 1.466 16.667 5.033 16.667 5.033C16.667 5.033 16.667 1.564 16.667 0.931C17.152 0.931 18.144 0.931 18.629 0.931Z" fill="#FF7977"/>
</g>
<defs>
<clipPath id="clip0_2_103">
<rect width="24.241" height="20.279" fill="white"/>
</clipPath>
</defs>
</svg>
