<svg width="22" height="22" viewBox="0 0 22 22" fill="none" xmlns="http://www.w3.org/2000/svg">
<g clip-path="url(#clip0_2_96)">
<path d="M11 1.11719C16.4583 1.11719 20.8828 5.54168 20.8828 11C20.8828 16.4583 16.4583 20.8828 11 20.8828C5.54168 20.8828 1.11719 16.4583 1.11719 11C1.11719 5.54168 5.54168 1.11719 11 1.11719Z" fill="white"/>
<path d="M11 21.3125C8.24536 21.3125 5.65563 20.2398 3.7079 18.2921C1.76017 16.3444 0.6875 13.7546 0.6875 11C0.6875 8.24536 1.76017 5.65563 3.7079 3.7079C5.65563 1.76017 8.24536 0.6875 11 0.6875C13.7546 0.6875 16.3444 1.76017 18.2921 3.7079C20.2398 5.65563 21.3125 8.24536 21.3125 11C21.3125 13.7546 20.2398 16.3444 18.2921 18.2921C16.3444 20.2398 13.7546 21.3125 11 21.3125ZM11 1.54688C5.7875 1.54688 1.54688 5.7875 1.54688 11C1.54688 16.2125 5.7875 20.4531 11 20.4531C16.2125 20.4531 20.4531 16.2125 20.4531 11C20.4531 5.7875 16.2125 1.54688 11 1.54688Z" fill="#FF7977"/>
<path d="M11 16.8988C10.7627 16.8988 10.5703 16.7063 10.5703 16.4691V5.53094C10.5703 5.29363 10.7627 5.10126 11 5.10126C11.2373 5.10126 11.4297 5.29363 11.4297 5.53094V16.4691C11.4297 16.7064 11.2373 16.8988 11 16.8988Z" fill="#FF7977"/>
<path d="M16.4691 11.4297H5.53094C5.29363 11.4297 5.10126 11.2373 5.10126 11C5.10126 10.7627 5.29363 10.5703 5.53094 10.5703H16.4691C16.7063 10.5703 16.8988 10.7627 16.8988 11C16.8988 11.2373 16.7064 11.4297 16.4691 11.4297Z" fill="#FF7977"/>
</g>
<defs>
<clipPath id="clip0_2_96">
<rect width="22" height="22" fill="white"/>
</clipPath>
</defs>
</svg>
