<svg width="22" height="25" viewBox="0 0 22 25" fill="none" xmlns="http://www.w3.org/2000/svg">
<path d="M10.7973 13.7778C5.39507 13.7778 1 18.1702 1 23.5695C1 23.8074 1.1927 24 1.43078 24H20.1618C20.3999 24 20.5926 23.8074 20.5926 23.5695C20.5923 18.1702 16.1984 13.7778 10.7973 13.7778ZM16.035 23.1389H5.66244V16.2663C6.33388 15.7936 7.07252 15.4104 7.8617 15.1351V18.8484C7.8617 19.0864 8.0544 19.279 8.29248 19.279H13.3254C13.5635 19.279 13.7562 19.0864 13.7562 18.8484V15.1432C14.5801 15.4331 15.3486 15.8406 16.0422 16.3452C16.0381 16.3691 16.0347 16.3929 16.0347 16.4179V23.1389H16.035ZM12.8946 14.8889V18.4176H8.72325V14.8834C9.38924 14.7247 10.0834 14.6389 10.7973 14.6389C11.5196 14.6389 12.2217 14.7264 12.8946 14.8889ZM4.80089 16.9566V23.1389H1.87161C1.98849 20.6917 3.09673 18.5017 4.80089 16.9566ZM16.8965 23.1389V17.0522C18.5412 18.5912 19.6064 20.7422 19.7204 23.1389H16.8965Z" fill="white" stroke="white"/>
<path d="M10.7965 12.0741C13.8495 12.0741 16.3334 9.59055 16.3334 6.53816C16.3334 3.48437 13.8495 1 10.7965 1C7.74308 1 5.25928 3.48437 5.25928 6.53816C5.259 9.59083 7.74308 12.0741 10.7965 12.0741ZM10.7965 1.84483C12.7701 1.84483 14.4599 3.07181 15.1517 4.80175C14.4079 4.46889 13.1902 3.83442 12.4106 3.40946C12.2923 3.34498 12.1498 3.34103 12.0279 3.39848C12.0091 3.40749 10.1309 4.29598 8.91094 4.80457L8.79494 4.853C7.88611 5.2329 7.29711 5.47818 6.19767 5.60462C6.63153 3.46269 8.5286 1.84483 10.7965 1.84483ZM6.10758 6.4641C7.44746 6.33174 8.12542 6.04872 9.12069 5.6325L9.23612 5.58435C10.241 5.16531 11.6785 4.49592 12.1955 4.25345C12.8379 4.59983 14.7381 5.60941 15.4271 5.81358C15.4639 6.05041 15.4887 6.29091 15.4887 6.53788C15.4887 9.12476 13.3839 11.229 10.7965 11.229C8.20904 11.229 6.10392 9.12448 6.10392 6.53788C6.10364 6.51338 6.10701 6.48916 6.10758 6.4641Z" fill="white" stroke="white"/>
</svg>
