<svg width="21" height="21" viewBox="0 0 21 21" fill="none" xmlns="http://www.w3.org/2000/svg">
<path d="M19.7678 18.3578L14.3178 12.9078C15.5663 11.3005 16.1554 9.27772 15.9649 7.25139C15.7744 5.22505 14.8188 3.34749 13.2926 2.001C11.7664 0.654508 9.78441 -0.0596609 7.75014 0.00390671C5.71587 0.0674743 3.7823 0.903998 2.34315 2.34315C0.903998 3.7823 0.0674743 5.71587 0.00390671 7.75014C-0.0596609 9.78441 0.654508 11.7664 2.001 13.2926C3.34749 14.8188 5.22505 15.7744 7.25139 15.9649C9.27772 16.1554 11.3005 15.5663 12.9078 14.3178L18.3578 19.7678C18.5491 19.9316 18.7951 20.0172 19.0468 20.0075C19.2985 19.9977 19.5372 19.8934 19.7153 19.7153C19.8934 19.5372 19.9977 19.2985 20.0075 19.0468C20.0172 18.7951 19.9316 18.5491 19.7678 18.3578ZM2.05775 8.06775C2.05775 6.88107 2.40965 5.72103 3.06894 4.73433C3.72823 3.74764 4.6653 2.9786 5.76165 2.52448C6.85801 2.07035 8.06441 1.95153 9.2283 2.18304C10.3922 2.41455 11.4613 2.986 12.3004 3.82511C13.1395 4.66423 13.711 5.73333 13.9425 6.89721C14.174 8.0611 14.0552 9.2675 13.601 10.3639C13.1469 11.4602 12.3779 12.3973 11.3912 13.0566C10.4045 13.7159 9.24444 14.0678 8.05775 14.0678C6.46646 14.0678 4.94033 13.4356 3.81511 12.3104C2.6899 11.1852 2.05775 9.65905 2.05775 8.06775Z" fill="white"/>
</svg>
